<?xml version="1.0" encoding="utf-8"?>
<!-- Generator: Adobe Illustrator 27.4.0, SVG Export Plug-In . SVG Version: 6.00 Build 0)  -->
<svg version="1.1" id="Capa_1" xmlns="http://www.w3.org/2000/svg" xmlns:xlink="http://www.w3.org/1999/xlink" x="0px" y="0px"
	 viewBox="0 0 31.88 32" style="enable-background:new 0 0 31.88 32;" xml:space="preserve">
<g>
	<path d="M19.8,14.8c-0.56,0.57-1.33,0.88-2.12,0.88s-1.56-0.32-2.12-0.88c-0.09-0.08-0.2-0.13-0.32-0.13
		c-0.12,0-0.23,0.05-0.32,0.13c-0.08,0.08-0.13,0.2-0.13,0.32c0,0.12,0.05,0.24,0.13,0.32c0.73,0.74,1.73,1.15,2.76,1.15
		c1.04,0,2.03-0.41,2.76-1.15c0.09-0.09,0.13-0.2,0.13-0.32c0-0.12-0.05-0.24-0.13-0.32c-0.04-0.04-0.09-0.08-0.15-0.1
		c-0.06-0.02-0.11-0.03-0.17-0.03C20,14.67,19.89,14.71,19.8,14.8L19.8,14.8z"/>
	<path d="M26.32,8.93H25.6c-0.28-0.72-0.77-1.34-1.4-1.78c-0.64-0.44-1.39-0.67-2.16-0.67c-0.77,0-1.52,0.24-2.16,0.68
		c-0.63,0.44-1.12,1.06-1.4,1.79l-1.43-0.01c-0.28-0.72-0.77-1.34-1.4-1.78c-0.63-0.44-1.39-0.67-2.16-0.67
		c-0.77,0-1.52,0.23-2.16,0.67c-0.63,0.44-1.12,1.06-1.4,1.78H9.34c-0.12,0-0.24,0.05-0.32,0.13c-0.09,0.09-0.13,0.2-0.13,0.32
		s0.05,0.24,0.13,0.32C9.1,9.8,9.22,9.85,9.34,9.85H9.7C9.68,10,9.67,10.15,9.67,10.31c0,1.02,0.4,1.99,1.12,2.71
		c0.72,0.72,1.69,1.12,2.7,1.12c1.01,0,1.98-0.4,2.7-1.12c0.72-0.72,1.12-1.7,1.12-2.71c0-0.15-0.01-0.31-0.03-0.46h0.98
		c-0.02,0.15-0.03,0.3-0.03,0.45c0,1.02,0.4,1.99,1.12,2.71c0.72,0.72,1.69,1.12,2.7,1.12c1.01,0,1.98-0.4,2.7-1.12
		c0.72-0.72,1.12-1.7,1.12-2.71c0-0.16-0.01-0.31-0.03-0.46h0.5c0.12,0,0.24-0.05,0.32-0.13c0.09-0.09,0.13-0.2,0.13-0.32
		c0-0.12-0.05-0.24-0.13-0.32S26.44,8.92,26.32,8.93L26.32,8.93z M13.49,13.23c-0.57,0-1.14-0.17-1.61-0.49
		c-0.48-0.32-0.85-0.78-1.07-1.31c-0.22-0.53-0.28-1.12-0.17-1.69c0.11-0.57,0.39-1.09,0.8-1.5c0.41-0.41,0.92-0.69,1.49-0.8
		c0.56-0.11,1.15-0.05,1.68,0.17c0.53,0.22,0.99,0.6,1.3,1.08s0.49,1.05,0.49,1.62c0,0.78-0.31,1.52-0.85,2.07
		C15,12.92,14.26,13.23,13.49,13.23z M22.03,13.23c-0.58,0-1.14-0.17-1.62-0.49c-0.48-0.32-0.85-0.78-1.07-1.31
		c-0.22-0.53-0.28-1.12-0.17-1.69c0.11-0.57,0.39-1.09,0.8-1.5c0.41-0.41,0.92-0.69,1.49-0.8c0.56-0.11,1.15-0.05,1.68,0.17
		c0.53,0.22,0.98,0.6,1.3,1.08c0.32,0.48,0.49,1.05,0.49,1.62c0,0.78-0.31,1.52-0.85,2.07C23.54,12.92,22.81,13.23,22.03,13.23z"/>
	<path d="M18.1,18.7c-0.01-0.03-0.03-0.05-0.04-0.08c-0.02-0.03-0.04-0.05-0.06-0.07c-0.02-0.02-0.04-0.04-0.07-0.06
		c-0.02-0.02-0.05-0.03-0.08-0.04c-0.03-0.01-0.05-0.02-0.08-0.03c-0.06-0.01-0.12-0.01-0.18,0c-0.03,0.01-0.06,0.02-0.09,0.03
		c-0.03,0.01-0.05,0.03-0.08,0.04c-0.03,0.02-0.05,0.03-0.07,0.06c-0.09,0.09-0.13,0.2-0.13,0.32c0,0.12,0.05,0.24,0.13,0.32
		c0.02,0.02,0.04,0.04,0.07,0.06c0.05,0.03,0.11,0.06,0.16,0.07c0.03,0,0.06,0,0.09,0c0.06,0,0.12-0.01,0.17-0.04
		c0.05-0.02,0.1-0.06,0.15-0.1c0.02-0.02,0.04-0.04,0.06-0.07c0.02-0.02,0.03-0.05,0.04-0.08c0.01-0.03,0.02-0.06,0.03-0.09
		c0.01-0.06,0.01-0.12,0-0.18C18.11,18.75,18.11,18.72,18.1,18.7L18.1,18.7z"/>
	<path d="M15.94,2.56c2.64,0,5.22,0.79,7.42,2.26c2.2,1.48,3.91,3.57,4.92,6.03c1.01,2.46,1.28,5.16,0.76,7.76s-1.79,5-3.65,6.88
		c-1.87,1.88-4.25,3.16-6.84,3.68c-2.59,0.52-5.27,0.25-7.71-0.76c-2.44-1.02-4.52-2.74-5.99-4.95C3.37,21.26,2.59,18.66,2.59,16
		c0-1.76,0.34-3.51,1.02-5.14C4.27,9.23,5.26,7.75,6.5,6.5s2.71-2.24,4.33-2.91C12.45,2.91,14.19,2.56,15.94,2.56L15.94,2.56z
		 M15.94,1.65c-2.82,0-5.58,0.84-7.92,2.42c-2.35,1.58-4.17,3.82-5.25,6.44c-1.08,2.62-1.36,5.51-0.81,8.29
		c0.55,2.78,1.91,5.34,3.9,7.35c1.99,2.01,4.54,3.37,7.3,3.93c2.77,0.55,5.63,0.27,8.24-0.82c2.61-1.09,4.83-2.93,6.4-5.29
		c1.57-2.36,2.4-5.13,2.4-7.97c0-3.8-1.51-7.45-4.18-10.14C23.35,3.17,19.72,1.65,15.94,1.65L15.94,1.65z"/>
</g>
</svg>
